<svg viewBox="0 0 2000 2000" version="1.1" xmlns="http://www.w3.org/2000/svg" height="50pt" width="50pt">
    <path d="M375.913 0H542.87v83.478h834.782V0h166.957v83.478h333.913V1920H42V83.478h333.913V0zM208.957 250.435V417.39h1502.608V250.435H1544.61v83.478h-166.957v-83.478H542.87v83.478H375.913v-83.478H208.957zm0 333.913v1168.695h1502.608V584.348H208.957zm500.87 166.956h166.956v166.957H709.826V751.304zm333.912 0h166.957v166.957h-166.957V751.304zm333.913 0h166.957v166.957h-166.957V751.304zM375.913 1085.217H542.87v166.957H375.913v-166.957zm333.913 0h166.957v166.957H709.826v-166.957zm333.913 0h166.957v166.957h-166.957v-166.957zm333.913 0h166.957v166.957h-166.957v-166.957zM375.913 1419.13H542.87v166.957H375.913V1419.13zm333.913 0h166.957v166.957H709.826V1419.13zm333.913 0h166.957v166.957h-166.957V1419.13z" stroke="none" stroke-width="1" fill-rule="evenodd"/>
</svg>
