<svg viewBox="0 0 2000 2000" version="1.1" xmlns="http://www.w3.org/2000/svg" height="50pt" width="50pt">
    <path d="M1486.595 898.048l-194.942 56.15 148.404 114.41c-28.133 79.008-52.164 135.275-78.187 182.164l-3.165 7.034c-.938 1.64-10.433 18.873-28.134 43.607h-181.696l86.393 102.687c-13.598 11.488-28.016 22.859-43.958 33.76-82.291 57.088-175.132 86.043-275.71 86.043-47.358 0-96.591-6.565-146.646-19.577l-29.54-7.736 305.367-538.759c5.744-10.55 7.033-21.686 3.4-32.47-4.338-12.895-15.006-23.914-29.424-30.479a69.038 69.038 0 0 0-27.079-5.509c-22.74 0-43.255 11.019-52.75 28.368l-305.132 536.648-20.163-10.784c-95.888-51.461-157.665-113.824-188.495-190.488-45.013-107.26-18.638-217.684 11.371-291.417l176.07 2.11-78.54-165.988c77.719-105.97 179.469-212.409 294.465-307.594l10.55-8.91 140.668 54.51L943.734 400.2c10.902-8.909 21.57-17.7 32.823-25.554 69.279-49.938 145.943-97.179 234.563-144.888 68.81-36.457 140.2-68.224 218.27-97.061l22.741-8.44 7.62 22.975c17.7 53.103 31.885 114.762 43.373 188.495l-149.46 86.511 165.988 73.382c6.213 128.711-5.158 267.855-33.057 402.428m150.75-426.928c-52.4-12.894-126.016-54.86-126.016-54.86l114.645-66.466c-15.24-107.493-43.607-209.478-84.401-303.49L1522.113 0l-54.977 16.646c-172.67 51.93-353.31 139.495-522.933 253.67-82.525 52.869-185.799 140.317-186.971 141.372-139.379 115.7-261.642 245.7-346.043 367.964l83.111 123.67-155.32-7.619c-64.122 138.44-78.306 280.164-30.948 395.629 42.904 101.046 127.07 183.688 250.155 245.934l21.803 11.019-153.328 275.24 6.682 96.475 99.054-54.86 152.39-273.13 17.935 5.392c71.037 21.1 141.254 31.884 208.775 31.884 89.09 0 173.607-18.052 251.326-53.688 58.964-27.196 118.748-69.982 163.175-108.9 69.865-59.784 113.941-123.788 138.558-167.044 37.746-66.23 71.39-146.411 100.226-238.432L1458.93 979.05l139.965-48.296c34.58-154.735 47.827-312.986 38.45-459.633" stroke="none" stroke-width="1" fill-rule="evenodd"/>
</svg>
