<svg viewBox="0 0 2000 2000" version="1.1" xmlns="http://www.w3.org/2000/svg" height="50pt" width="50pt">
    <path d="M266.667 693c146.986 0 266.666 119.68 266.666 266.667 0 146.986-119.68 266.666-266.666 266.666C119.68 1226.333 0 1106.653 0 959.667 0 812.68 119.68 693 266.667 693zM960 693c146.987 0 266.667 119.68 266.667 266.667 0 146.986-119.68 266.666-266.667 266.666-146.987 0-266.667-119.68-266.667-266.666C693.333 812.68 813.013 693 960 693zm693.333 0C1800.32 693 1920 812.68 1920 959.667c0 146.986-119.68 266.666-266.667 266.666-146.986 0-266.666-119.68-266.666-266.666 0-146.987 119.68-266.667 266.666-266.667z" stroke="none" stroke-width="1" fill-rule="evenodd"/>
</svg>
