<svg viewBox="0 0 1920 1920" version="1.1" xmlns="http://www.w3.org/2000/svg">
    <path d="M1360 160H560c-176.48 0-320 143.52-320 320v1200c0 32.32 19.52 61.52 49.36 73.92 29.92 12.32 64.32 5.44 87.2-17.36L720 1393.12l343.44 343.44A80.027 80.027 0 0 0 1120 1760c10.32 0 20.72-2 30.64-6.08 29.84-12.4 49.36-41.6 49.36-73.92V880h400c44.16 0 80-35.84 80-80V480c0-176.48-143.52-320-320-320zm160 560h-320V480c0-88.24 71.76-160 160-160s160 71.76 160 160v240zm-480-240v1006.88l-263.44-263.44c-15.6-15.6-36.08-23.44-56.56-23.44-20.48 0-40.96 7.84-56.56 23.44L400 1486.88V480c0-88.24 71.76-160 160-160h522.96C1055.6 367.12 1040 421.76 1040 480zm-98.4 243.55L858.05 640 710.8 787.298 563.55 640 480 723.55 627.298 870.8 480 1018.05l83.55 83.55L710.8 954.35l147.25 147.25 83.55-83.55L794.35 870.8 941.6 723.55z" stroke="none" stroke-width="1" fill-rule="evenodd"/>
</svg>
