<svg viewBox="0 0 1920 1920" version="1.1" xmlns="http://www.w3.org/2000/svg">
    <path d="M1642.831 585.828l-43.708 104.132c126.268 52.97 207.925 175.624 207.925 312.621 0 186.805-152.02 338.824-338.824 338.824H790.577v112.94h677.647c249.148 0 451.765-202.616 451.765-451.764 0-182.626-108.763-346.165-277.158-416.753m183.54-472.783l-419.124 366.72C1319.831 316.904 1148.951 211.982 960 211.982c-262.927 0-477.402 201.487-503.153 457.75-20.33-3.275-40.659-5.986-61.553-5.986C177.318 663.746 0 841.064 0 1059.04c0 187.144 131.125 343.568 306.07 384.226L19.314 1694.222l74.315 84.931 1807.06-1581.176-74.316-84.932zM395.295 1341.393c-155.746 0-282.353-126.607-282.353-282.353 0-155.745 126.607-282.352 282.353-282.352 74.315 0 144.452 28.574 197.534 80.64l78.946-80.753c-31.172-30.495-67.2-53.873-105.374-72.283 8.47-210.41 181.158-379.37 393.6-379.37 155.859 0 294.89 92.387 358.588 232.434l-896.075 784.037h-27.219z" stroke="none" stroke-width="1" fill-rule="evenodd"/>
</svg>
