<svg viewBox="0 0 1920 1920" version="1.1" xmlns="http://www.w3.org/2000/svg">
    <g stroke="none" stroke-width="1" fill-rule="evenodd">
        <path d="M974.505 1416.621c-82.334 0-141.515-34.447-194.372-95.887l-90.804 83.351c62.23 74.992 154.277 128.075 283.143 128.075 154.278 0 258.862-96.79 258.862-231.19v-2.034c0-134.4-105.6-190.644-217.525-204.198l205.892-208.263v-95.887H730.552V902.06h320.076l-199.68 209.394 21.12 80.188h60.31c103.454 0 170.09 40.546 170.09 112.376v2.147c0 66.635-55.003 110.456-127.963 110.456"/>
        <path d="M375.913 0H542.87v83.478h834.782V0h166.957v83.478h333.913V1920H42V83.478h333.913V0zM208.957 250.435V417.39h1502.608V250.435H1544.61v83.478h-166.957v-83.478H542.87v83.478H375.913v-83.478H208.957zm0 333.913v1168.695h1502.608V584.348H208.957z"/>
    </g>
</svg>
