<svg viewBox="0 0 2000 2000" version="1.1" xmlns="http://www.w3.org/2000/svg" height="50pt" width="50pt">
    <g stroke="none" stroke-width="1" fill-rule="evenodd" transform="translate(40 40)">
        <path d="M1667.673 345.623c30.38 30.268 51.84 66.635 65.619 106.164h-434.937V16.851c39.53 13.779 75.897 35.35 106.278 65.619l263.04 263.153z"/>
        <path d="M507.823 790.588h903.53V677.647h-903.53v112.941zm0 451.765h790.589v-112.94H507.823v112.94zm0 225.995h451.878v-113.054H507.823v113.054zm0-451.878h677.648V903.529H507.823v112.941zm0-451.651h451.878V451.878H507.823v112.941zm677.648-.113V0H169v1920h1581.176V564.706h-564.705z"/>
    </g>
</svg>
