<svg viewBox="0 0 1920 1920" version="1.1" xmlns="http://www.w3.org/2000/svg">
    <path d="M1520 720h-320V480c0-88.24 71.76-160 160-160s160 71.76 160 160v240zm-498.4 349.091L909.091 1181.6 710.8 983.309 512.509 1181.6 400 1069.091 598.354 870.8 400 672.509 512.509 560 710.8 758.355 909.091 560 1021.6 672.509 823.309 870.8l198.291 198.291zM1360 160H560c-176.48 0-320 143.52-320 320v1200c0 32.32 19.52 61.52 49.36 73.92 29.92 12.32 64.32 5.44 87.2-17.359L720 1393.12l343.44 343.441A80.03 80.03 0 0 0 1120 1760c10.32 0 20.72-2 30.64-6.08 29.84-12.4 49.36-41.6 49.36-73.92V880h400c44.16 0 80-35.84 80-80V480c0-176.48-143.52-320-320-320z" stroke="none" stroke-width="1" fill-rule="evenodd"/>
</svg>
