<svg viewBox="0 0 2000 2000" version="1.1" xmlns="http://www.w3.org/2000/svg" height="50pt" width="50pt">
    <path d="M1826.36 113l74.316 85.045L93.616 1779.22l-74.314-85.045 286.757-250.955C131.113 1402.562-.01 1246.14-.01 1058.995c0-217.863 177.317-395.294 395.294-395.294 20.894 0 41.223 2.824 61.553 5.986 25.863-256.263 240.226-457.75 503.153-457.75 188.95 0 359.83 104.922 447.247 267.783L1826.36 113zm93.629 889.525c0 249.6-202.165 451.764-451.765 451.764H644.883l192-174.945 796.235-696.96 10.165 3.5c168.282 70.024 276.706 233.676 276.706 416.64z" stroke="none" stroke-width="1" fill-rule="evenodd"/>
</svg>
