<svg viewBox="0 0 2000 2000" version="1.1" xmlns="http://www.w3.org/2000/svg" height="50pt" width="50pt">
    <path d="M341.067 800c71.359-275.6 321.354-480 618.949-480 280.955 0 519.59 182.24 605.509 434.48L1360.009 960H1840V480l-151.437 151.44C1562.885 353.92 1283.93 160 960.016 160c-386.313 0-709.507 275.28-783.826 640h164.877zm1237.866 320c-71.359 275.6-321.354 480-618.949 480-280.875 0-519.59-182.24-605.509-434.48L559.991 960H80v480l151.437-151.44C357.115 1566.08 636.07 1760 959.984 1760c386.313 0 709.507-275.28 783.906-640h-164.957zM892.76 1354.176l-323.514-323.44 141.438-141.44 156.557 156.56 331.354-463.92 162.717 116.16-468.552 656.08z" stroke="none" stroke-width="1" fill-rule="evenodd"/>
</svg>
